<?xml version="1.0" encoding="UTF-8" standalone="no"?>
<!DOCTYPE svg PUBLIC "-//W3C//DTD SVG 1.1//EN"
 "http://www.w3.org/Graphics/SVG/1.1/DTD/svg11.dtd">
<!-- Generated by graphviz version 2.38.0 (20140413.2041)
 -->
<!-- Title: models_diagram Pages: 1 -->
<svg width="656pt" height="273pt"
 viewBox="0.00 0.00 656.00 273.00" xmlns="http://www.w3.org/2000/svg" xmlns:xlink="http://www.w3.org/1999/xlink">
<g id="graph0" class="graph" transform="scale(1 1) rotate(0) translate(4 269)">
<title>models_diagram</title>
<polygon fill="none" stroke="none" points="-4,4 -4,-269 652,-269 652,4 -4,4"/>
<!-- _diagram_info -->
<g id="node1" class="node"><title>_diagram_info</title>
<text text-anchor="start" x="8" y="-236.1" font-family="Times,serif" font-size="13.00">Models diagram</text>
<text text-anchor="start" x="8" y="-222.1" font-family="Times,serif" font-size="13.00">Date: Apr 17 2017 &#45; 20:19</text>
<text text-anchor="start" x="8" y="-208.1" font-family="Times,serif" font-size="13.00">Migration version: 20170418010306</text>
<text text-anchor="start" x="8" y="-194.1" font-family="Times,serif" font-size="13.00">Generated by RailRoady 1.5.2</text>
<text text-anchor="start" x="8" y="-180.1" font-family="Times,serif" font-size="13.00">http://railroady.prestonlee.com</text>
</g>
<!-- ApplicationRecord -->
<g id="node2" class="node"><title>ApplicationRecord</title>
<ellipse fill="none" stroke="black" cx="309" cy="-211.5" rx="77.1866" ry="18"/>
<text text-anchor="middle" x="309" y="-207.8" font-family="Times,serif" font-size="14.00">ApplicationRecord</text>
</g>
<!-- Category -->
<g id="node3" class="node"><title>Category</title>
<path fill="none" stroke="black" d="M416,-158.5C416,-158.5 636,-158.5 636,-158.5 642,-158.5 648,-164.5 648,-170.5 648,-170.5 648,-252.5 648,-252.5 648,-258.5 642,-264.5 636,-264.5 636,-264.5 416,-264.5 416,-264.5 410,-264.5 404,-258.5 404,-252.5 404,-252.5 404,-170.5 404,-170.5 404,-164.5 410,-158.5 416,-158.5"/>
<text text-anchor="middle" x="526" y="-249.3" font-family="Times,serif" font-size="14.00">Category</text>
<polyline fill="none" stroke="black" points="404,-241.5 648,-241.5 "/>
<text text-anchor="start" x="412" y="-226.3" font-family="Times,serif" font-size="14.00">id :integer</text>
<text text-anchor="start" x="412" y="-211.3" font-family="Times,serif" font-size="14.00">name :character varying</text>
<text text-anchor="start" x="412" y="-196.3" font-family="Times,serif" font-size="14.00">product_type :character varying</text>
<text text-anchor="start" x="412" y="-181.3" font-family="Times,serif" font-size="14.00">created_at :timestamp without time zone</text>
<text text-anchor="start" x="412" y="-166.3" font-family="Times,serif" font-size="14.00">updated_at :timestamp without time zone</text>
</g>
<!-- Product -->
<g id="node4" class="node"><title>Product</title>
<path fill="none" stroke="black" d="M416,-0.5C416,-0.5 636,-0.5 636,-0.5 642,-0.5 648,-6.5 648,-12.5 648,-12.5 648,-109.5 648,-109.5 648,-115.5 642,-121.5 636,-121.5 636,-121.5 416,-121.5 416,-121.5 410,-121.5 404,-115.5 404,-109.5 404,-109.5 404,-12.5 404,-12.5 404,-6.5 410,-0.5 416,-0.5"/>
<text text-anchor="middle" x="526" y="-106.3" font-family="Times,serif" font-size="14.00">Product</text>
<polyline fill="none" stroke="black" points="404,-98.5 648,-98.5 "/>
<text text-anchor="start" x="412" y="-83.3" font-family="Times,serif" font-size="14.00">id :integer</text>
<text text-anchor="start" x="412" y="-68.3" font-family="Times,serif" font-size="14.00">name :character varying</text>
<text text-anchor="start" x="412" y="-53.3" font-family="Times,serif" font-size="14.00">price :integer</text>
<text text-anchor="start" x="412" y="-38.3" font-family="Times,serif" font-size="14.00">category_id :integer</text>
<text text-anchor="start" x="412" y="-23.3" font-family="Times,serif" font-size="14.00">created_at :timestamp without time zone</text>
<text text-anchor="start" x="412" y="-8.3" font-family="Times,serif" font-size="14.00">updated_at :timestamp without time zone</text>
</g>
<!-- Category&#45;&gt;Product -->
<g id="edge1" class="edge"><title>Category&#45;&gt;Product</title>
<path fill="none" stroke="#b82f17" d="M526,-150.033C526,-144.052 526,-137.948 526,-131.882"/>
<ellipse fill="none" stroke="#b82f17" cx="526" cy="-154.144" rx="4" ry="4"/>
<polygon fill="#b82f17" stroke="#b82f17" points="526,-131.74 530.5,-121.739 526,-126.74 526,-121.74 526,-121.74 526,-121.74 526,-126.74 521.5,-121.74 526,-131.74 526,-131.74"/>
</g>
</g>
</svg>
